<svg width="1397" height="807" viewBox="0 0 1397 807" fill="none" xmlns="http://www.w3.org/2000/svg">
<line x1="0.25" y1="-0.000309789" x2="1.25" y2="806.999" stroke="#E0E0E0" stroke-width="0.5"/>
<line x1="45.25" y1="-0.000309789" x2="46.25" y2="806.999" stroke="#E0E0E0" stroke-width="0.5"/>
<line x1="90.25" y1="-0.000309789" x2="91.25" y2="806.999" stroke="#E0E0E0" stroke-width="0.5"/>
<line x1="135.25" y1="-0.000309789" x2="136.25" y2="806.999" stroke="#E0E0E0" stroke-width="0.5"/>
<line x1="180.25" y1="-0.000309789" x2="181.25" y2="806.999" stroke="#E0E0E0" stroke-width="0.5"/>
<line x1="225.25" y1="-0.000309789" x2="226.25" y2="806.999" stroke="#E0E0E0" stroke-width="0.5"/>
<line x1="270.25" y1="-0.000309789" x2="271.25" y2="806.999" stroke="#E0E0E0" stroke-width="0.5"/>
<line x1="315.25" y1="-0.000309789" x2="316.25" y2="806.999" stroke="#E0E0E0" stroke-width="0.5"/>
<line x1="360.25" y1="-0.000309789" x2="361.25" y2="806.999" stroke="#E0E0E0" stroke-width="0.5"/>
<line x1="405.25" y1="-0.000309789" x2="406.25" y2="806.999" stroke="#E0E0E0" stroke-width="0.5"/>
<line x1="450.25" y1="-0.000309789" x2="451.25" y2="806.999" stroke="#E0E0E0" stroke-width="0.5"/>
<line x1="495.25" y1="-0.000309789" x2="496.25" y2="806.999" stroke="#E0E0E0" stroke-width="0.5"/>
<line x1="540.25" y1="-0.000309789" x2="541.25" y2="806.999" stroke="#E0E0E0" stroke-width="0.5"/>
<line x1="585.25" y1="-0.000309789" x2="586.25" y2="806.999" stroke="#E0E0E0" stroke-width="0.5"/>
<line x1="630.25" y1="-0.000309789" x2="631.25" y2="806.999" stroke="#E0E0E0" stroke-width="0.5"/>
<line x1="675.25" y1="-0.000309789" x2="676.25" y2="806.999" stroke="#E0E0E0" stroke-width="0.5"/>
<line x1="720.25" y1="-0.000309789" x2="721.25" y2="806.999" stroke="#E0E0E0" stroke-width="0.5"/>
<line x1="765.25" y1="-0.000309789" x2="766.25" y2="806.999" stroke="#E0E0E0" stroke-width="0.5"/>
<line x1="810.25" y1="-0.000309789" x2="811.25" y2="806.999" stroke="#E0E0E0" stroke-width="0.5"/>
<line x1="855.25" y1="-0.000309789" x2="856.25" y2="806.999" stroke="#E0E0E0" stroke-width="0.5"/>
<line x1="900.25" y1="-0.000309789" x2="901.25" y2="806.999" stroke="#E0E0E0" stroke-width="0.5"/>
<line x1="945.25" y1="-0.000309789" x2="946.25" y2="806.999" stroke="#E0E0E0" stroke-width="0.5"/>
<line x1="990.25" y1="-0.000309789" x2="991.25" y2="806.999" stroke="#E0E0E0" stroke-width="0.5"/>
<line x1="1035.25" y1="-0.000309789" x2="1036.25" y2="806.999" stroke="#E0E0E0" stroke-width="0.5"/>
<line x1="1080.25" y1="-0.000309789" x2="1081.25" y2="806.999" stroke="#E0E0E0" stroke-width="0.5"/>
<line x1="1125.25" y1="-0.000309789" x2="1126.25" y2="806.999" stroke="#E0E0E0" stroke-width="0.5"/>
<line x1="1170.25" y1="-0.000309789" x2="1171.25" y2="806.999" stroke="#E0E0E0" stroke-width="0.5"/>
<line x1="1215.25" y1="-0.000309789" x2="1216.25" y2="806.999" stroke="#E0E0E0" stroke-width="0.5"/>
<line x1="1260.25" y1="-0.000309789" x2="1261.25" y2="806.999" stroke="#E0E0E0" stroke-width="0.5"/>
<line x1="1305.25" y1="-0.000309789" x2="1306.25" y2="806.999" stroke="#E0E0E0" stroke-width="0.5"/>
<line x1="1350.25" y1="-0.000309789" x2="1351.25" y2="806.999" stroke="#E0E0E0" stroke-width="0.5"/>
<line x1="1395.25" y1="-0.000309789" x2="1396.25" y2="806.999" stroke="#E0E0E0" stroke-width="0.5"/>
</svg>
