<svg width="25" height="25" viewBox="0 0 25 25" fill="none" xmlns="http://www.w3.org/2000/svg">
<path d="M8.75 6.25V4.6875C8.75 3.48 9.73 2.5 10.9375 2.5H14.0625C15.27 2.5 16.25 3.48 16.25 4.6875V6.25H18.125C18.9538 6.25 19.7487 6.57924 20.3347 7.16529C20.9208 7.75134 21.25 8.5462 21.25 9.375V10.625C21.25 11.1223 21.0525 11.5992 20.7008 11.9508C20.3492 12.3025 19.8723 12.5 19.375 12.5H13.75V11.875C13.75 11.7092 13.6842 11.5503 13.5669 11.4331C13.4497 11.3158 13.2908 11.25 13.125 11.25H11.875C11.7092 11.25 11.5503 11.3158 11.4331 11.4331C11.3158 11.5503 11.25 11.7092 11.25 11.875V12.5H5.625C5.12772 12.5 4.65081 12.3025 4.29917 11.9508C3.94754 11.5992 3.75 11.1223 3.75 10.625V9.375C3.75 8.5462 4.07924 7.75134 4.66529 7.16529C5.25134 6.57924 6.0462 6.25 6.875 6.25H8.75ZM10 6.25H15V4.6875C15 4.43886 14.9012 4.2004 14.7254 4.02459C14.5496 3.84877 14.3111 3.75 14.0625 3.75H10.9375C10.6889 3.75 10.4504 3.84877 10.2746 4.02459C10.0988 4.2004 10 4.43886 10 4.6875V6.25ZM3.75 13.125V16.875C3.75 17.7038 4.07924 18.4987 4.66529 19.0847C5.25134 19.6708 6.0462 20 6.875 20H18.125C18.9538 20 19.7487 19.6708 20.3347 19.0847C20.9208 18.4987 21.25 17.7038 21.25 16.875V13.125C20.7095 13.5315 20.0513 13.7509 19.375 13.75H13.75V14.375C13.75 14.5408 13.6842 14.6997 13.5669 14.8169C13.4497 14.9342 13.2908 15 13.125 15H11.875C11.7092 15 11.5503 14.9342 11.4331 14.8169C11.3158 14.6997 11.25 14.5408 11.25 14.375V13.75H5.625C4.9487 13.7509 4.2905 13.5315 3.75 13.125Z" fill="#333333"/>
</svg>
