<svg width="38" height="38" viewBox="0 0 38 38" fill="none" xmlns="http://www.w3.org/2000/svg">
<g clip-path="url(#clip0_57_91)">
<path d="M19 9.95239C16.5447 9.95239 16.236 9.9637 15.2713 10.0067C14.3066 10.0519 13.6495 10.2035 13.0738 10.4274C12.47 10.6545 11.9231 11.0108 11.4713 11.4713C11.0111 11.9233 10.6548 12.4702 10.4274 13.0738C10.2035 13.6483 10.0508 14.3066 10.0067 15.2679C9.9637 16.2348 9.95239 16.5425 9.95239 19.0011C9.95239 21.4576 9.9637 21.7652 10.0067 22.7299C10.0519 23.6935 10.2035 24.3505 10.4274 24.9262C10.6592 25.5211 10.968 26.0255 11.4713 26.5288C11.9734 27.032 12.4778 27.3419 13.0727 27.5726C13.6495 27.7966 14.3054 27.9492 15.269 27.9933C16.2348 28.0363 16.5425 28.0476 19 28.0476C21.4576 28.0476 21.7641 28.0363 22.7299 27.9933C23.6923 27.9481 24.3517 27.7966 24.9273 27.5726C25.5308 27.3454 26.0773 26.9891 26.5288 26.5288C27.032 26.0255 27.3408 25.5211 27.5726 24.9262C27.7954 24.3505 27.9481 23.6935 27.9933 22.7299C28.0363 21.7652 28.0476 21.4576 28.0476 19C28.0476 16.5425 28.0363 16.2348 27.9933 15.269C27.9481 14.3066 27.7954 13.6483 27.5726 13.0738C27.3452 12.4701 26.989 11.9233 26.5288 11.4713C26.0771 11.0106 25.5301 10.6543 24.9262 10.4274C24.3494 10.2035 23.6912 10.0508 22.7288 10.0067C21.7629 9.9637 21.4564 9.95239 18.9977 9.95239H19.0011H19ZM18.1891 11.5832H19.0011C21.4169 11.5832 21.703 11.5911 22.6564 11.6352C23.5385 11.6748 24.018 11.823 24.337 11.9463C24.7588 12.1102 25.0608 12.307 25.3775 12.6237C25.6941 12.9404 25.8898 13.2412 26.0538 13.6642C26.1782 13.982 26.3252 14.4615 26.3648 15.3436C26.4089 16.297 26.4179 16.5832 26.4179 18.9977C26.4179 21.4123 26.4089 21.6996 26.3648 22.653C26.3252 23.5351 26.177 24.0135 26.0538 24.3325C25.9087 24.7253 25.6772 25.0805 25.3763 25.3718C25.0597 25.6885 24.7588 25.8841 24.3358 26.0481C24.0192 26.1725 23.5397 26.3195 22.6564 26.3603C21.703 26.4032 21.4169 26.4134 19.0011 26.4134C16.5854 26.4134 16.2982 26.4032 15.3448 26.3603C14.4626 26.3195 13.9842 26.1725 13.6653 26.0481C13.2723 25.9033 12.9168 25.6722 12.6248 25.3718C12.3237 25.08 12.0918 24.7245 11.9463 24.3313C11.823 24.0135 11.6748 23.534 11.6352 22.6519C11.5923 21.6985 11.5832 21.4123 11.5832 18.9955C11.5832 16.5798 11.5923 16.2948 11.6352 15.3414C11.676 14.4592 11.823 13.9797 11.9474 13.6608C12.1114 13.2389 12.3082 12.937 12.6248 12.6203C12.9415 12.3036 13.2423 12.108 13.6653 11.944C13.9842 11.8196 14.4626 11.6726 15.3448 11.6319C16.1794 11.5934 16.5029 11.5821 18.1891 11.581V11.5832ZM23.8303 13.0851C23.6877 13.0851 23.5465 13.1132 23.4148 13.1678C23.2831 13.2223 23.1634 13.3023 23.0626 13.4031C22.9618 13.5039 22.8818 13.6236 22.8272 13.7554C22.7727 13.8871 22.7446 14.0283 22.7446 14.1708C22.7446 14.3134 22.7727 14.4546 22.8272 14.5863C22.8818 14.7181 22.9618 14.8377 23.0626 14.9386C23.1634 15.0394 23.2831 15.1194 23.4148 15.1739C23.5465 15.2285 23.6877 15.2566 23.8303 15.2566C24.1183 15.2566 24.3944 15.1422 24.598 14.9386C24.8016 14.735 24.916 14.4588 24.916 14.1708C24.916 13.8829 24.8016 13.6067 24.598 13.4031C24.3944 13.1995 24.1183 13.0851 23.8303 13.0851ZM19.0011 14.3541C18.3849 14.3444 17.7728 14.4575 17.2006 14.6867C16.6285 14.9159 16.1076 15.2566 15.6684 15.6891C15.2292 16.1215 14.8804 16.637 14.6423 17.2055C14.4042 17.774 14.2816 18.3842 14.2816 19.0006C14.2816 19.6169 14.4042 20.2271 14.6423 20.7957C14.8804 21.3642 15.2292 21.8797 15.6684 22.3121C16.1076 22.7445 16.6285 23.0852 17.2006 23.3144C17.7728 23.5436 18.3849 23.6567 19.0011 23.6471C20.2209 23.6281 21.3843 23.1302 22.2402 22.2608C23.096 21.3915 23.5757 20.2205 23.5757 19.0006C23.5757 17.7806 23.096 16.6096 22.2402 15.7403C21.3843 14.871 20.2209 14.3731 19.0011 14.3541ZM19.0011 15.9838C19.8011 15.9838 20.5683 16.3015 21.134 16.8672C21.6996 17.4329 22.0174 18.2001 22.0174 19C22.0174 19.8 21.6996 20.5672 21.134 21.1328C20.5683 21.6985 19.8011 22.0163 19.0011 22.0163C18.2012 22.0163 17.434 21.6985 16.8683 21.1328C16.3027 20.5672 15.9849 19.8 15.9849 19C15.9849 18.2001 16.3027 17.4329 16.8683 16.8672C17.434 16.3015 18.2012 15.9838 19.0011 15.9838Z" fill="black"/>
</g>
<circle cx="19" cy="19" r="18" stroke="#333333" stroke-width="2"/>
<defs>
<clipPath id="clip0_57_91">
<rect width="18.0952" height="18.0952" fill="white" transform="translate(9.95239 9.95239)"/>
</clipPath>
</defs>
</svg>
