<svg width="38" height="38" viewBox="0 0 38 38" fill="none" xmlns="http://www.w3.org/2000/svg">
<g clip-path="url(#clip0_57_99)">
<path d="M9.95239 11.2485C9.95239 10.5326 10.5473 9.95239 11.2813 9.95239H26.7188C27.4527 9.95239 28.0476 10.5326 28.0476 11.2485V26.7516C28.0476 27.4675 27.4527 28.0476 26.7188 28.0476H11.2813C10.5473 28.0476 9.95239 27.4675 9.95239 26.7516V11.2485ZM15.5427 25.1004V16.9292H12.8273V25.1004H15.5427ZM14.1855 15.813C15.1322 15.813 15.7214 15.1864 15.7214 14.4016C15.7044 13.5997 15.1333 12.9901 14.2036 12.9901C13.274 12.9901 12.6667 13.6008 12.6667 14.4016C12.6667 15.1864 13.2559 15.813 14.1675 15.813H14.1855ZM19.7363 25.1004V20.537C19.7363 20.2927 19.7544 20.0484 19.8267 19.8742C20.0224 19.3868 20.4691 18.8813 21.2201 18.8813C22.2029 18.8813 22.5953 19.63 22.5953 20.7292V25.1004H25.3107V20.4137C25.3107 17.903 23.9717 16.7358 22.1848 16.7358C20.7439 16.7358 20.0982 17.5275 19.7363 18.0851V18.1133H19.7182C19.7242 18.1039 19.7302 18.0945 19.7363 18.0851V16.9292H17.022C17.0559 17.696 17.022 25.1004 17.022 25.1004H19.7363Z" fill="#333333"/>
</g>
<circle cx="19" cy="19" r="18" stroke="#333333" stroke-width="2"/>
<defs>
<clipPath id="clip0_57_99">
<rect width="18.0952" height="18.0952" fill="white" transform="translate(9.95239 9.95239)"/>
</clipPath>
</defs>
</svg>
