<svg width="1230" height="922" viewBox="0 0 1230 922" fill="none" xmlns="http://www.w3.org/2000/svg">
<g clip-path="url(#clip0_259_412)">
<mask id="mask0_259_412" style="mask-type:luminance" maskUnits="userSpaceOnUse" x="-135" y="-173" width="1620" height="1312">
<path d="M1484.81 48.6155L31.406 -172.704L-134.69 916.875L1318.71 1138.19L1484.81 48.6155Z" fill="white"/>
</mask>
<g mask="url(#mask0_259_412)">
<path d="M422.734 213.509C419.921 211.861 426.456 207.384 429.601 206.571C432.595 205.793 440.525 209.788 443.794 208.732C449.215 206.988 449.737 199.853 452.945 196.335C458.49 190.255 469.496 190.654 476.675 188.336C478.111 187.872 481.581 182.158 483.711 185.052C485.84 187.946 484.943 192.498 489.726 193.226C489.953 193.261 515.342 188.664 517.389 188.003C521.957 186.521 526.576 177.179 535.874 176.301C548.177 175.141 557.52 184.925 570.323 183.725C574.979 183.287 579.281 180.211 583.962 179.995C590.895 179.672 597.877 182.361 604.758 181.71C616.899 180.569 629.714 172.809 641.755 177.182C646.516 178.909 649.63 184.682 654.157 186.329C667.808 191.282 682.317 193.564 695.871 198.488C705.986 202.162 715.576 209.559 726.184 213.991C736.123 218.146 754.414 219.814 761.572 229.541C765.651 235.083 764.153 248.718 767.121 255.064C773.175 268.034 789.785 275.586 797.292 285.788C800.853 290.627 795.273 296.745 798.57 301.224C805.283 310.347 819.359 326.992 820.454 338.67C820.995 344.457 808.392 354.064 805.038 358.823C800.073 365.862 813.484 371.345 809.539 376.928C804.151 384.556 791.813 394.798 792.825 405.593C793.213 409.717 797.685 417.06 794.813 421.138C793.702 422.71 789.462 421.557 787.993 423.002C784.135 426.784 785.627 434.139 782.776 438.176C778.146 444.729 772.74 451.324 769.38 459.362C764.832 470.239 765.057 500.961 760.33 504.436C753.608 509.379 755.433 521.894 750.591 525.454C745.979 528.845 739.629 525.628 734.932 528.15C724.257 533.869 727.793 539.823 722.895 545.188C715.224 553.586 702.915 550.783 694.583 554.667C684.763 559.254 674.107 572.38 662.087 577.3C651.042 581.831 632.608 575.671 623.563 582.321C616.203 587.733 617.041 598.051 614.148 601.21C611.34 604.295 602.682 604.022 599.367 607.669C596.561 610.74 591.538 616.348 586.39 616.58C580.087 616.869 561.603 619.324 556.646 616.406C554.487 615.134 552.131 612.104 549.272 612.38C534.302 613.787 525.238 631.424 508.369 633.006C490.584 634.682 469.408 630.601 452.211 634.616C446.324 635.984 441.468 641.168 435.193 641.46C429.59 641.725 418.532 636.717 410.74 639.914C394.104 646.73 370.322 676.409 354.812 649.543C351.205 643.289 349.758 636.304 346.161 630.08C343.128 624.828 334.226 622.921 332.88 617.171C330.578 607.312 344.606 602.364 343.437 595.552C342.823 591.96 338.232 593.018 337.097 589.506C333.853 579.446 329.126 569.494 323.573 559.14C323.008 558.081 320.372 557.564 321.059 556.58C330.432 543.302 344.202 559.857 339.361 531.786C338.234 525.27 326.294 529.288 323.195 523.517C321.067 519.564 329.174 516.967 327.763 512.6C326.421 508.447 315.995 499.674 318.186 494.448C319.146 492.155 322.027 493.262 320.362 489.699C318.248 485.181 310.718 484.18 309.596 479.349C308.719 475.572 313.702 450.506 314.029 450.266C317.431 447.765 321.333 449.796 320.788 444.037C319.885 434.435 315.295 424.721 314.36 414.751C313.782 408.639 316.329 402.219 315.753 396.092C314.503 382.852 302.287 381.92 312.596 364.401C315.714 359.099 322.541 356.988 326.113 351.943C329.019 347.842 326.963 343.131 331.608 339.715C343.024 331.321 351.967 337.343 359.704 331.655C364.545 328.095 358.891 313.647 367.098 311.732C377.579 309.278 396.652 353.075 403.932 346.374C407.598 342.998 407.465 325.674 410.123 324.816C423.29 320.565 429.102 309.59 442.896 305.129C444.224 304.707 445.489 304.696 445.457 302.616C445.223 285.291 429.744 289.278 426.269 280.823C424.478 276.471 430.02 268.794 427.229 265.001C421.154 256.745 405.89 253.985 399.093 244.748C386.858 228.122 410.382 228.612 413.63 220.833C415.022 217.517 423.053 213.703 422.734 213.509Z" fill="#FFFCF3" stroke="black" stroke-width="4" stroke-linecap="round" stroke-linejoin="round"/>
<path d="M892.067 297.692C889.673 309.492 890.133 324.195 885.681 334.825C883.33 340.433 879.132 347.298 879.213 353.436C879.459 371.445 877.027 389.307 869.576 407.13C861.172 427.203 839.386 439.505 828.39 458.197C825.687 462.779 828.765 470.883 826.396 476.038C819.76 490.516 818.542 508.316 811.345 522.375C806.276 532.287 789.586 540.604 781.257 548.277C774.601 554.406 765.583 556.023 758.791 562.276C740.882 578.782 725.525 589.682 700.885 599.183C691.041 602.983 648.493 608.204 643.384 614.379C642.351 615.63 632.466 644.274 632.841 645.435C633.766 648.319 638.002 650.256 638.146 653.501C638.341 657.842 633.349 667.156 639.316 669.646C642.62 671.021 646.335 667.899 649.467 669.741C653.358 672.031 653.17 676.793 658.32 678.347C669.789 681.806 680.014 676.366 691.228 676.826C705.285 677.398 718.737 679.752 732.927 679.546C746.273 679.358 758.632 686.407 772.174 684.071C781.047 682.548 802.258 681.539 807.906 673.545C818.387 658.709 821.089 641.178 837.15 629.369C844.363 624.066 852.064 622.509 859.892 618.316C872.277 611.666 888.571 594.232 893.022 581.99C897.498 569.68 913.249 559.812 918.731 546.712C921.769 539.452 917.708 533.607 917.393 526.911C916.844 514.982 925.129 501.409 923.942 488.715C923.491 483.856 918.064 485.163 917.001 481.851C916.174 479.272 919.151 476.794 918.9 474.157C917.789 462.389 916.964 450.462 916.392 438.211C916.014 429.922 908.316 423.074 907.572 415.093C906.892 407.935 913.172 401.982 912.837 394.847C912.295 383.253 905.322 369.548 904.76 357.327C904.34 348.364 913.227 335.506 910.721 327.751C908.183 319.917 896.575 314.898 895.791 306.606C895.278 301.114 902.924 284.873 895.92 281.948C890.964 279.873 892.757 294.314 892.067 297.692Z" fill="#FFFCF3" stroke="black" stroke-width="4" stroke-linecap="round" stroke-linejoin="round"/>
<path d="M535.535 647.534C523.135 649.459 506.23 654.902 495.361 659.128C492.187 660.374 492.313 664.664 487.761 664.717C471.09 664.958 455.083 666.52 440.126 672.649C431.389 676.234 420.403 671.663 411.441 672.501C404.301 673.177 399.58 678.678 393.302 680.705C382.975 684.048 369.966 678.067 359.051 683.93C357.997 684.499 337.637 683.93 337.637 702.601C340.436 708.604 345.726 710.186 343 718.5C341.856 722.004 335.387 734.936 333.186 737.364C331.924 738.748 325.593 740.564 326.414 743.079C327.603 746.734 334.382 753.766 338.097 754.976C346.883 757.856 363.974 755.188 372.349 751.751C376.399 750.097 380.259 743.685 384.578 743.495C405.891 742.503 435.452 753.906 455.5 752.976C470.015 752.305 502.663 733.952 518 729C533.016 724.151 524.848 702.501 539.59 694C547.585 689.387 580.822 698.499 584 694C586.076 691.062 595.196 680.958 596.327 677.876C598.636 671.516 611.602 669.88 615.021 660.468C616.396 656.678 611.096 634.379 605.35 635.369C599.587 636.356 586.383 639.328 580.106 634.898C579.694 634.598 577.794 632.935 576.935 633.567C574.834 635.112 575.755 640.303 573.082 642.269C563.572 649.261 544.134 646.182 535.571 647.522L535.535 647.534Z" fill="#FFFCF3" stroke="black" stroke-width="4" stroke-linecap="round" stroke-linejoin="round"/>
</g>
</g>
<defs>
<clipPath id="clip0_259_412">
<rect width="1230" height="922" fill="white"/>
</clipPath>
</defs>
</svg>
