<svg width="28" height="28" viewBox="0 0 28 28" fill="none" xmlns="http://www.w3.org/2000/svg">
<path d="M22.435 17.8034L19.4717 17.4651C19.1232 17.4241 18.77 17.4627 18.4386 17.5779C18.1072 17.6931 17.8063 17.8818 17.5583 18.1301L15.4117 20.2767C12.0997 18.5923 9.40773 15.9003 7.72332 12.5884L9.88165 10.4301C10.3833 9.92839 10.6283 9.22839 10.5467 8.51672L10.2083 5.57672C10.1422 5.00759 9.86904 4.48266 9.44093 4.10188C9.01281 3.72109 8.45961 3.51104 7.88665 3.51172H5.86832C4.54999 3.51172 3.45332 4.60839 3.53499 5.92672C4.15332 15.8901 12.1217 23.8467 22.0733 24.4651C23.3917 24.5467 24.4883 23.4501 24.4883 22.1317V20.1134C24.5 18.9351 23.6133 17.9434 22.435 17.8034Z" fill="#333333"/>
</svg>
