<svg width="42" height="42" viewBox="0 0 42 42" fill="none" xmlns="http://www.w3.org/2000/svg">
<path d="M16.8175 14.75C17.3937 14.75 17.9262 14.7938 18.415 14.925C18.9025 15.0125 19.3038 15.195 19.66 15.4137C20.0175 15.6337 20.2812 15.9462 20.4612 16.3475C20.6362 16.7475 20.7312 17.2362 20.7312 17.7687C20.7312 18.3887 20.5988 18.9212 20.2863 19.3212C20.0175 19.7213 19.5788 20.0788 19.04 20.3425C19.7975 20.5625 20.3738 20.9625 20.725 21.495C21.0763 22.0275 21.3013 22.6912 21.3013 23.4487C21.3013 24.0687 21.17 24.6013 20.945 25.0463C20.7205 25.4942 20.3837 25.8762 19.9675 26.155C19.5675 26.4237 19.0788 26.6425 18.5463 26.775C18.0246 26.9128 17.4882 26.9866 16.9487 26.995L11 27.0038V14.75H16.8175ZM16.4612 19.7225C16.9488 19.7225 17.3488 19.5912 17.6575 19.3663C17.965 19.1412 18.1013 18.745 18.1013 18.2575C18.1013 17.9875 18.0575 17.725 17.97 17.5487C17.8753 17.3701 17.7379 17.2177 17.57 17.105C17.3887 17.0061 17.1948 16.9321 16.9938 16.885C16.7738 16.8413 16.5488 16.8412 16.285 16.8412H13.7125V19.7287C13.7125 19.7225 16.4612 19.7225 16.4612 19.7225ZM16.5925 24.9637C16.8612 24.9637 17.125 24.92 17.35 24.8762C17.57 24.8325 17.795 24.7438 17.97 24.6063C18.145 24.4688 18.2825 24.3375 18.415 24.1187C18.5025 23.8988 18.59 23.63 18.59 23.3175C18.59 22.6975 18.415 22.2525 18.0575 21.94C17.7013 21.6712 17.2125 21.54 16.6362 21.54H13.7125V24.9575H16.5938L16.5925 24.9637ZM25.165 24.92C25.5225 25.2762 26.0538 25.4525 26.7625 25.4525C27.25 25.4525 27.695 25.32 28.0525 25.095C28.4088 24.8263 28.6275 24.5625 28.715 24.295H30.89C30.5325 25.3587 30 26.1163 29.2925 26.605C28.585 27.0487 27.7388 27.3125 26.7175 27.3125C26.0645 27.3154 25.4168 27.1945 24.8088 26.9563C24.2615 26.7528 23.7732 26.417 23.3875 25.9788C22.9761 25.5701 22.6706 25.0672 22.4975 24.5138C22.2788 23.9375 22.185 23.3175 22.185 22.6038C22.185 21.94 22.2725 21.3137 22.4975 20.7375C22.7225 20.1625 23.03 19.6725 23.4312 19.2288C23.8312 18.8288 24.32 18.4713 24.8525 18.2513C25.4463 18.0148 26.0797 17.8939 26.7188 17.895C27.4762 17.895 28.14 18.0262 28.7163 18.3387C29.2913 18.6512 29.7375 19.0037 30.0938 19.5363C30.45 20.0237 30.7138 20.6 30.895 21.2213C30.9825 21.8412 31.0263 22.4662 30.9825 23.175H24.545C24.545 23.9 24.8075 24.5625 25.165 24.92ZM27.965 20.255C27.6525 19.9425 27.1625 19.7663 26.5863 19.7663C26.1862 19.7663 25.8787 19.8538 25.61 19.9862C25.3412 20.1175 25.165 20.2987 24.99 20.4738C24.8266 20.6453 24.7178 20.8615 24.6775 21.095C24.6325 21.3138 24.59 21.495 24.59 21.67H28.585C28.4975 21.0125 28.2738 20.5675 27.965 20.255ZM24.0562 15.595H29.0288V16.7912H24.0562V15.595Z" fill="#333333"/>
<circle cx="21" cy="21" r="19.5" stroke="#333333" stroke-width="3"/>
</svg>
