<svg width="38" height="38" viewBox="0 0 38 38" fill="none" xmlns="http://www.w3.org/2000/svg">
<g clip-path="url(#clip0_57_95)">
<path d="M15.2158 13.3452C15.7372 13.3452 16.219 13.3848 16.6612 13.5035C17.1023 13.5827 17.4653 13.7478 17.7876 13.9458C18.1111 14.1448 18.3497 14.4275 18.5126 14.7906C18.6709 15.1525 18.7569 15.5947 18.7569 16.0765C18.7569 16.6374 18.637 17.1192 18.3542 17.4811C18.1111 17.843 17.7141 18.1665 17.2267 18.4051C17.912 18.6041 18.4334 18.966 18.7512 19.4478C19.069 19.9296 19.2726 20.5302 19.2726 21.2155C19.2726 21.7765 19.1538 22.2583 18.9502 22.6609C18.7472 23.0661 18.4424 23.4118 18.0658 23.664C17.7039 23.9072 17.2617 24.1051 16.78 24.225C16.308 24.3496 15.8227 24.4165 15.3346 24.424L9.95239 24.4319V13.3452H15.2158ZM14.8935 17.8441C15.3346 17.8441 15.6965 17.7254 15.9758 17.5218C16.2541 17.3183 16.3773 16.9597 16.3773 16.5187C16.3773 16.2744 16.3377 16.0369 16.2586 15.8774C16.1729 15.7158 16.0486 15.5779 15.8967 15.4759C15.7326 15.3865 15.5572 15.3195 15.3753 15.2769C15.1763 15.2373 14.9727 15.2373 14.7341 15.2373H12.4066V17.8498C12.4066 17.8441 14.8935 17.8441 14.8935 17.8441ZM15.0123 22.5862C15.2554 22.5862 15.4941 22.5466 15.6976 22.5071C15.8967 22.4675 16.1002 22.3872 16.2586 22.2628C16.4169 22.1384 16.5413 22.0196 16.6612 21.8217C16.7404 21.6227 16.8195 21.3795 16.8195 21.0968C16.8195 20.5358 16.6612 20.1332 16.3377 19.8505C16.0154 19.6073 15.5732 19.4885 15.0519 19.4885H12.4066V22.5806H15.0134L15.0123 22.5862ZM22.7683 22.5466C23.0918 22.869 23.5725 23.0284 24.2137 23.0284C24.6548 23.0284 25.0574 22.9085 25.3808 22.705C25.7032 22.4618 25.9011 22.2232 25.9802 21.9812H27.9481C27.6247 22.9436 27.1429 23.629 26.5027 24.0712C25.8626 24.4727 25.097 24.7113 24.173 24.7113C23.5821 24.7139 22.9961 24.6045 22.446 24.389C21.9509 24.2049 21.5091 23.9011 21.1601 23.5046C20.7879 23.1348 20.5115 22.6798 20.3549 22.1791C20.157 21.6577 20.0722 21.0968 20.0722 20.451C20.0722 19.8505 20.1513 19.2838 20.3549 18.7625C20.5585 18.2422 20.8367 17.7989 21.1997 17.3974C21.5616 17.0355 22.0038 16.7121 22.4856 16.513C23.0228 16.2991 23.5959 16.1897 24.1741 16.1907C24.8595 16.1907 25.46 16.3094 25.9814 16.5922C26.5016 16.8749 26.9054 17.1938 27.2277 17.6756C27.55 18.1167 27.7886 18.6381 27.9526 19.2002C28.0318 19.7611 28.0714 20.3266 28.0318 20.9678H22.2074C22.2074 21.6238 22.4449 22.2232 22.7683 22.5466ZM25.3017 18.3259C25.0189 18.0432 24.5756 17.8837 24.0542 17.8837C23.6923 17.8837 23.4141 17.9629 23.171 18.0828C22.9278 18.2015 22.7683 18.3655 22.61 18.5238C22.4622 18.6791 22.3638 18.8747 22.3273 19.0859C22.2866 19.2838 22.2481 19.4478 22.2481 19.6062H25.8626C25.7835 19.0113 25.581 18.6087 25.3017 18.3259ZM21.7652 14.1097H26.2641V15.1921H21.7652V14.1097Z" fill="#333333"/>
</g>
<circle cx="19" cy="19" r="18" stroke="#333333" stroke-width="2"/>
<defs>
<clipPath id="clip0_57_95">
<rect width="18.0952" height="18.0952" fill="white" transform="translate(9.95239 9.95239)"/>
</clipPath>
</defs>
</svg>
