<svg width="25" height="25" viewBox="0 0 25 25" fill="none" xmlns="http://www.w3.org/2000/svg">
<path d="M5 18.125V13.955L10.01 16.8325C10.7677 17.2676 11.6262 17.4966 12.5 17.4966C13.3738 17.4966 14.2323 17.2676 14.99 16.8325L20 13.955V18.125C20.0001 18.2071 19.9841 18.2885 19.9528 18.3644C19.9215 18.4403 19.8755 18.5094 19.8175 18.5675L19.815 18.5688L19.8125 18.5725L19.8038 18.58L19.775 18.6075L19.675 18.7C19.5875 18.7775 19.4625 18.8838 19.2988 19.01C18.8498 19.3547 18.3727 19.6612 17.8725 19.9263C16.2181 20.8034 14.3725 21.2581 12.5 21.25C10.6274 21.2577 8.78182 20.8026 7.1275 19.925C6.62774 19.6599 6.15107 19.3534 5.7025 19.0088C5.5376 18.8815 5.37828 18.7472 5.225 18.6063L5.19625 18.5788C5.13514 18.5199 5.08633 18.4494 5.05264 18.3716C5.01895 18.2937 5.00106 18.2099 5 18.125ZM23.4363 10.5413L14.3675 15.7475C13.7992 16.0739 13.1553 16.2456 12.5 16.2456C11.8447 16.2456 11.2008 16.0739 10.6325 15.7475L2.5 11.0788V16.8738C2.5 17.0395 2.43415 17.1985 2.31694 17.3157C2.19973 17.4329 2.04076 17.4988 1.875 17.4988C1.70924 17.4988 1.55027 17.4329 1.43306 17.3157C1.31585 17.1985 1.25 17.0395 1.25 16.8738V10C1.24994 9.88732 1.28034 9.77671 1.33799 9.67989C1.39564 9.58307 1.4784 9.50364 1.5775 9.45L10.6325 4.25C11.2007 3.92329 11.8446 3.75134 12.5 3.75134C13.1554 3.75134 13.7993 3.92329 14.3675 4.25L23.4363 9.4575C23.5315 9.51228 23.6107 9.59121 23.6658 9.68635C23.7208 9.78149 23.7498 9.88946 23.7498 9.99938C23.7498 10.1093 23.7208 10.2173 23.6658 10.3124C23.6107 10.4075 23.5315 10.4865 23.4363 10.5413Z" fill="black"/>
</svg>
