<svg width="111" height="111" viewBox="0 0 111 111" fill="none" xmlns="http://www.w3.org/2000/svg">
<rect width="111" height="111" fill="#FFFCF3"/>
<path d="M76.4887 63.026C72.211 66.4452 67.1901 68.9175 61.5596 67.3743C60.2745 67.0221 59.0701 66.3935 57.9672 65.6227C63.0188 62.0936 68.0704 58.5662 73.122 55.0371C73.5687 54.7252 74.0588 54.339 74.1056 53.7816C74.1346 53.4293 73.975 53.0932 73.8073 52.7846C71.8644 49.2167 68.2123 46.7185 64.2974 46.2774C60.3826 45.8363 56.3016 47.4602 53.6702 50.5126C52.0175 52.4291 50.9291 54.8723 50.626 57.4286C50.289 60.2645 50.9243 63.1957 52.2932 65.6712C56.9111 74.0221 68.0688 73.7151 75.6083 69.9452C78.3575 68.5701 80.8422 66.6488 82.8915 64.3559C83.0028 64.2315 83.1172 64.0957 83.143 63.9309C83.1737 63.737 83.0753 63.5479 82.9753 63.3799C82.7077 62.9274 79.9521 59.951 80.2665 59.6424C79.0814 60.7993 77.8205 61.9579 76.4871 63.0244L76.4887 63.026ZM55.0278 59.8492C54.9553 58.8376 55.0681 57.8116 55.368 56.7725C55.963 54.9369 57.0014 53.4972 58.4912 52.4501C60.052 51.3545 61.7241 50.8891 63.509 51.0556C64.8311 51.1396 66.0662 51.5694 67.2142 52.3466C67.5254 52.5567 67.5287 53.0334 67.2223 53.2499L56.6708 60.6604C56.0049 61.1273 55.0891 60.6814 55.0294 59.8492H55.0278Z" fill="#333333"/>
<path d="M90.0246 58.0762L98.6719 47.5359C98.8686 47.266 98.6832 46.8782 98.3591 46.8782L93.0995 46.8636C92.9753 46.8636 92.8592 46.9234 92.785 47.0269L87.0981 54.2094L90.0246 58.0762Z" fill="#333333"/>
<path d="M96.7313 71.6368L91.7152 71.6239C91.5346 71.6239 91.3669 71.5382 91.2589 71.3944L82.1844 59.2462L78.9741 54.8946L73.6694 47.788C73.3888 47.4083 73.6597 46.8718 74.1305 46.8734L79.1482 46.8863C79.3288 46.8863 79.4981 46.972 79.6046 47.1158L85.4237 54.9108L88.6339 59.2624L97.1925 70.719C97.4763 71.0971 97.2054 71.6384 96.733 71.6368H96.7313Z" fill="#333333"/>
<path d="M106.854 70.7139C106.235 71.3457 105.459 71.6608 104.526 71.6576C103.592 71.6544 102.863 71.336 102.249 70.701C101.633 70.0659 101.327 69.2952 101.33 68.3903C101.333 67.4854 101.643 66.7178 102.262 66.086C102.88 65.4542 103.642 65.1391 104.545 65.1424C105.448 65.1456 106.253 65.4639 106.867 66.099C107.481 66.734 107.789 67.5048 107.786 68.4097C107.783 69.3146 107.473 70.0821 106.854 70.7139Z" fill="#333333"/>
<path d="M50.2902 66.6106C49.879 65.9997 49.5098 65.3599 49.1841 64.7006C48.0522 65.3873 46.9203 66.0919 45.6836 66.5766C44.7307 66.9499 43.4536 67.2003 42.7716 66.2195C42.0347 65.1627 42.1702 63.7521 42.0976 62.5321C41.9686 60.3393 42.0299 58.1498 42.0476 55.9554C42.0783 52.2292 42.1202 48.503 42.1218 44.7768C42.1218 43.0106 42.125 41.4561 42.1234 39.4589C42.1234 39.2052 41.9187 39 41.6655 39H37.7055C37.4523 39 37.2476 39.2052 37.2476 39.4589V65.4891C37.2476 67.5591 37.2701 70.0766 39.3437 71.1754C43.0264 73.1274 48.5859 70.3432 51.8026 68.5351C51.2512 67.9323 50.7449 67.2892 50.2886 66.6106H50.2902Z" fill="#333333"/>
<path d="M34.6432 66.6988C34.2949 66.088 33.9821 65.4481 33.7064 64.7888C32.747 65.4756 31.7892 66.1801 30.7412 66.6649C29.9334 67.0381 28.8515 67.2886 28.2726 66.3077C28.2726 66.3077 28.2726 66.3077 28.2726 66.3061C28.1952 66.1752 28.1597 66.0233 28.1614 65.8698L28.2242 46.9172H23.5773L23.5822 50.2701C23.5822 49.8031 22.6405 48.7932 22.3116 48.5298C21.6489 47.9998 20.9298 47.5522 20.1736 47.1903C18.6595 46.468 16.9972 46.0931 15.338 46.1173C12.1423 46.1674 9.17386 47.7687 7.11484 50.338C5.04292 52.9234 3.93521 56.3313 4.00293 59.7166C4.07871 63.5284 5.68788 67.1658 8.49666 69.5654C10.5831 71.3509 13.2145 72.3059 15.8943 72.238C18.9159 72.1621 21.7182 70.6674 23.7257 68.2516C23.9079 69.4926 24.34 70.6205 25.3687 71.2637C28.4887 73.2156 33.2001 70.4315 35.925 68.6233C35.4574 68.0206 35.0285 67.3775 34.6432 66.6988ZM21.7731 65.1055C20.2671 66.7053 18.4338 67.5035 16.2732 67.5035C14.1126 67.5035 12.2809 66.7053 10.7734 65.1055C9.26738 63.5074 8.51439 61.5619 8.51439 59.269C8.51439 56.976 9.26738 55.0321 10.7734 53.4324C12.2809 51.8343 14.1142 51.0344 16.2732 51.0344C18.4322 51.0344 20.2671 51.8343 21.7731 53.4324C23.279 55.0305 23.5757 56.9776 23.5757 59.269C23.5757 61.5603 23.2806 63.5074 21.7731 65.1055Z" fill="#333333"/>
</svg>
