<svg width="16" height="16" viewBox="0 0 16 16" fill="none" xmlns="http://www.w3.org/2000/svg">
<rect width="16" height="16" fill="#FFFCF3"/>
<path d="M10.3814 8.77791C9.88685 9.17325 9.30632 9.4591 8.65531 9.28067C8.50672 9.23995 8.36746 9.16727 8.23995 9.07815C8.82403 8.67011 9.40811 8.26225 9.99219 7.85421C10.0438 7.81815 10.1005 7.7735 10.1059 7.70904C10.1093 7.66831 10.0908 7.62945 10.0714 7.59377C9.84677 7.18124 9.42451 6.8924 8.97186 6.84139C8.51922 6.79039 8.04736 6.97815 7.74311 7.33108C7.55202 7.55266 7.42618 7.83515 7.39114 8.13072C7.35217 8.45861 7.42563 8.79753 7.5839 9.08375C8.11783 10.0493 9.40792 10.0138 10.2797 9.57792C10.5975 9.41893 10.8848 9.19679 11.1218 8.93167C11.1346 8.91729 11.1479 8.90159 11.1508 8.88254C11.1544 8.86012 11.143 8.83826 11.1315 8.81883C11.1005 8.76651 10.7819 8.42237 10.8183 8.38668C10.6812 8.52045 10.5354 8.65441 10.3813 8.77772L10.3814 8.77791ZM7.90009 8.4106C7.8917 8.29364 7.90475 8.175 7.93942 8.05487C8.00821 7.84263 8.12827 7.67616 8.30053 7.55509C8.481 7.42842 8.67432 7.37461 8.8807 7.39386C9.03357 7.40357 9.17638 7.45327 9.30911 7.54314C9.34509 7.56742 9.34547 7.62254 9.31004 7.64757L8.09006 8.50439C8.01306 8.55838 7.90717 8.50682 7.90027 8.4106H7.90009Z" fill="#333333"/>
<path d="M11.9463 8.20561L12.9461 6.9869C12.9688 6.9557 12.9474 6.91086 12.9099 6.91086L12.3018 6.90918C12.2874 6.90918 12.274 6.91609 12.2654 6.92805L11.6079 7.75852L11.9463 8.20561Z" fill="#333333"/>
<path d="M12.7216 9.77348L12.1416 9.77199C12.1208 9.77199 12.1014 9.76209 12.0889 9.74546L11.0397 8.34085L10.6685 7.83771L10.0551 7.01603C10.0227 6.97212 10.054 6.91009 10.1085 6.91028L10.6886 6.91177C10.7095 6.91177 10.7291 6.92168 10.7414 6.9383L11.4142 7.83958L11.7854 8.34272L12.7749 9.66736C12.8078 9.71108 12.7764 9.77367 12.7218 9.77348H12.7216Z" fill="#333333"/>
<path d="M13.8921 9.66678C13.8205 9.73983 13.7309 9.77627 13.6229 9.77589C13.515 9.77552 13.4307 9.73871 13.3597 9.66529C13.2885 9.59186 13.253 9.50274 13.2534 9.39812C13.2538 9.29349 13.2896 9.20475 13.3612 9.1317C13.4326 9.05864 13.5208 9.02221 13.6252 9.02259C13.7296 9.02296 13.8226 9.05977 13.8936 9.13319C13.9646 9.20662 14.0003 9.29573 13.9999 9.40036C13.9995 9.50499 13.9637 9.59373 13.8921 9.66678Z" fill="#333333"/>
<path d="M7.35226 9.1924C7.30472 9.12178 7.26203 9.04779 7.22437 8.97157C7.0935 9.05097 6.96262 9.13243 6.81963 9.18848C6.70945 9.23164 6.5618 9.2606 6.48294 9.14719C6.39774 9.025 6.4134 8.8619 6.40502 8.72084C6.3901 8.46731 6.39719 8.21415 6.39924 7.96043C6.40278 7.5296 6.40763 7.09876 6.40781 6.66793C6.40781 6.46372 6.40818 6.28398 6.408 6.05306C6.408 6.02373 6.38432 6 6.35505 6H5.89718C5.86791 6 5.84424 6.02373 5.84424 6.05306V9.06274C5.84424 9.30207 5.84685 9.59316 6.0866 9.7202C6.5124 9.9459 7.1552 9.62398 7.52713 9.41492C7.46337 9.34523 7.40483 9.27087 7.35207 9.1924H7.35226Z" fill="#333333"/>
<path d="M5.54304 9.20256C5.50277 9.13194 5.4666 9.05796 5.43472 8.98173C5.3238 9.06113 5.21306 9.14259 5.09188 9.19864C4.99848 9.2418 4.87339 9.27076 4.80646 9.15735C4.80646 9.15735 4.80646 9.15735 4.80646 9.15716C4.79751 9.14203 4.79341 9.12447 4.7936 9.10672L4.80087 6.91536H4.26358L4.26414 7.30304C4.26414 7.24905 4.15527 7.13228 4.11723 7.10182C4.04061 7.04054 3.95746 6.98879 3.87003 6.94694C3.69497 6.86342 3.50277 6.82008 3.31093 6.82288C2.94143 6.82867 2.59822 7.01382 2.36015 7.31089C2.12059 7.60982 1.99251 8.00385 2.00034 8.39526C2.0091 8.836 2.19516 9.25656 2.51992 9.534C2.76115 9.74045 3.0654 9.85087 3.37525 9.84302C3.72462 9.83424 4.04863 9.66142 4.28073 9.38211C4.3018 9.5256 4.35176 9.65601 4.4707 9.73036C4.83144 9.95606 5.37619 9.63415 5.69125 9.42508C5.63719 9.35539 5.5876 9.28103 5.54304 9.20256ZM4.05497 9.01835C3.88084 9.20331 3.66887 9.29561 3.41906 9.29561C3.16925 9.29561 2.95746 9.20331 2.78315 9.01835C2.60903 8.83357 2.52197 8.60862 2.52197 8.34351C2.52197 8.07839 2.60903 7.85364 2.78315 7.66867C2.95746 7.48389 3.16943 7.39141 3.41906 7.39141C3.66869 7.39141 3.88084 7.48389 4.05497 7.66867C4.22909 7.85345 4.26339 8.07858 4.26339 8.34351C4.26339 8.60844 4.22928 8.83357 4.05497 9.01835Z" fill="#333333"/>
</svg>
