<svg width="42" height="42" viewBox="0 0 42 42" fill="none" xmlns="http://www.w3.org/2000/svg">
<g clip-path="url(#clip0_7_196)">
<path d="M21 11C18.2862 11 17.945 11.0125 16.8788 11.06C15.8125 11.11 15.0862 11.2775 14.45 11.525C13.7826 11.776 13.1781 12.1698 12.6788 12.6788C12.1701 13.1784 11.7764 13.7828 11.525 14.45C11.2775 15.085 11.1088 15.8125 11.06 16.875C11.0125 17.9437 11 18.2838 11 21.0013C11 23.7163 11.0125 24.0563 11.06 25.1225C11.11 26.1875 11.2775 26.9137 11.525 27.55C11.7812 28.2075 12.1225 28.765 12.6788 29.3212C13.2338 29.8775 13.7913 30.22 14.4488 30.475C15.0863 30.7225 15.8113 30.8912 16.8763 30.94C17.9438 30.9875 18.2837 31 21 31C23.7163 31 24.055 30.9875 25.1225 30.94C26.1863 30.89 26.915 30.7225 27.5513 30.475C28.2182 30.2239 28.8223 29.8301 29.3212 29.3212C29.8775 28.765 30.2187 28.2075 30.475 27.55C30.7212 26.9137 30.89 26.1875 30.94 25.1225C30.9875 24.0563 31 23.7163 31 21C31 18.2837 30.9875 17.9438 30.94 16.8763C30.89 15.8125 30.7212 15.085 30.475 14.45C30.2237 13.7828 29.8299 13.1783 29.3212 12.6788C28.822 12.1696 28.2175 11.7758 27.55 11.525C26.9125 11.2775 26.185 11.1088 25.1212 11.06C24.0537 11.0125 23.715 11 20.9975 11H21.0013H21ZM20.1037 12.8025H21.0013C23.6713 12.8025 23.9875 12.8113 25.0412 12.86C26.0162 12.9038 26.5462 13.0675 26.8987 13.2038C27.365 13.385 27.6987 13.6025 28.0487 13.9525C28.3987 14.3025 28.615 14.635 28.7963 15.1025C28.9338 15.4538 29.0963 15.9838 29.14 16.9588C29.1888 18.0125 29.1988 18.3288 29.1988 20.9975C29.1988 23.6663 29.1888 23.9837 29.14 25.0375C29.0963 26.0125 28.9325 26.5413 28.7963 26.8938C28.6359 27.3279 28.38 27.7205 28.0475 28.0425C27.6975 28.3925 27.365 28.6088 26.8975 28.79C26.5475 28.9275 26.0175 29.09 25.0412 29.135C23.9875 29.1825 23.6713 29.1938 21.0013 29.1938C18.3313 29.1938 18.0138 29.1825 16.96 29.135C15.985 29.09 15.4562 28.9275 15.1037 28.79C14.6694 28.6299 14.2764 28.3745 13.9537 28.0425C13.6209 27.72 13.3647 27.3271 13.2038 26.8925C13.0675 26.5412 12.9038 26.0113 12.86 25.0363C12.8125 23.9825 12.8025 23.6662 12.8025 20.995C12.8025 18.325 12.8125 18.01 12.86 16.9562C12.905 15.9812 13.0675 15.4513 13.205 15.0988C13.3863 14.6325 13.6037 14.2987 13.9537 13.9487C14.3037 13.5987 14.6362 13.3825 15.1037 13.2013C15.4562 13.0638 15.985 12.9013 16.96 12.8563C17.8825 12.8138 18.24 12.8013 20.1037 12.8V12.8025ZM26.3387 14.4625C26.1812 14.4625 26.0251 14.4935 25.8795 14.5538C25.7339 14.6142 25.6017 14.7025 25.4902 14.814C25.3788 14.9254 25.2904 15.0577 25.2301 15.2033C25.1698 15.3489 25.1387 15.5049 25.1387 15.6625C25.1387 15.8201 25.1698 15.9761 25.2301 16.1217C25.2904 16.2673 25.3788 16.3996 25.4902 16.511C25.6017 16.6225 25.7339 16.7108 25.8795 16.7712C26.0251 16.8315 26.1812 16.8625 26.3387 16.8625C26.657 16.8625 26.9622 16.7361 27.1873 16.511C27.4123 16.286 27.5387 15.9808 27.5387 15.6625C27.5387 15.3442 27.4123 15.039 27.1873 14.814C26.9622 14.5889 26.657 14.4625 26.3387 14.4625ZM21.0013 15.865C20.3201 15.8544 19.6436 15.9794 19.0112 16.2327C18.3788 16.486 17.8031 16.8626 17.3177 17.3405C16.8322 17.8185 16.4467 18.3882 16.1836 19.0166C15.9204 19.6449 15.7849 20.3194 15.7849 21.0006C15.7849 21.6819 15.9204 22.3563 16.1836 22.9847C16.4467 23.613 16.8322 24.1828 17.3177 24.6607C17.8031 25.1387 18.3788 25.5153 19.0112 25.7686C19.6436 26.0219 20.3201 26.1469 21.0013 26.1363C22.3494 26.1152 23.6353 25.5649 24.5812 24.6041C25.5272 23.6432 26.0574 22.349 26.0574 21.0006C26.0574 19.6523 25.5272 18.358 24.5812 17.3972C23.6353 16.4364 22.3494 15.886 21.0013 15.865ZM21.0013 17.6663C21.8854 17.6663 22.7334 18.0175 23.3586 18.6427C23.9838 19.2679 24.335 20.1158 24.335 21C24.335 21.8842 23.9838 22.7321 23.3586 23.3573C22.7334 23.9825 21.8854 24.3337 21.0013 24.3337C20.1171 24.3337 19.2691 23.9825 18.6439 23.3573C18.0187 22.7321 17.6675 21.8842 17.6675 21C17.6675 20.1158 18.0187 19.2679 18.6439 18.6427C19.2691 18.0175 20.1171 17.6663 21.0013 17.6663Z" fill="#333333"/>
</g>
<circle cx="21" cy="21" r="19.5" stroke="#333333" stroke-width="3"/>
<defs>
<clipPath id="clip0_7_196">
<rect width="20" height="20" fill="white" transform="translate(11 11)"/>
</clipPath>
</defs>
</svg>
