<svg width="248" height="80" viewBox="0 0 248 80" fill="none" xmlns="http://www.w3.org/2000/svg">
<g clip-path="url(#clip0_7_172)">
<path d="M173.216 57.412C162.994 65.5823 150.996 71.4899 137.542 67.8025C134.471 66.9608 131.593 65.4588 128.958 63.617C141.029 55.1841 153.1 46.7552 165.171 38.3223C166.238 37.5771 167.409 36.6543 167.521 35.3222C167.59 34.4804 167.209 33.6773 166.808 32.9398C162.166 24.4143 153.439 18.4449 144.084 17.3908C134.729 16.3367 124.978 20.2172 118.69 27.511C114.741 32.0904 112.14 37.9285 111.416 44.0369C110.611 50.8133 112.129 57.8175 115.4 63.7328C126.434 83.6874 153.096 82.9538 171.112 73.9457C177.681 70.6598 183.618 66.0688 188.515 60.5898C188.781 60.2925 189.055 59.9682 189.116 59.5743C189.189 59.111 188.954 58.6592 188.716 58.2576C188.076 57.1765 181.491 50.0642 182.243 49.3267C179.411 52.0913 176.398 54.8598 173.212 57.4082L173.216 57.412ZM121.934 49.8209C121.761 47.4038 122.03 44.952 122.747 42.4692C124.169 38.0829 126.65 34.6426 130.21 32.1406C133.94 29.5227 137.935 28.4106 142.2 28.8084C145.359 29.0091 148.311 30.0362 151.054 31.8934C151.798 32.3954 151.805 33.5344 151.073 34.0518L125.86 51.7593C124.269 52.8751 122.081 51.8095 121.938 49.8209H121.934Z" fill="#333333"/>
<path d="M205.56 45.5852L226.223 20.3987C226.693 19.7539 226.25 18.8272 225.476 18.8272L212.908 18.7924C212.611 18.7924 212.334 18.9353 212.156 19.1824L198.567 36.3454L205.56 45.5852Z" fill="#333333"/>
<path d="M221.588 77.9883L209.602 77.9574C209.17 77.9574 208.77 77.7528 208.511 77.4091L186.828 48.3807L179.157 37.9825L166.481 21.001C165.81 20.0936 166.458 18.8117 167.583 18.8156L179.573 18.8465C180.004 18.8465 180.409 19.0511 180.663 19.3948L194.568 38.0212L202.239 48.4193L222.69 75.7952C223.368 76.6987 222.721 77.9922 221.592 77.9883H221.588Z" fill="#333333"/>
<path d="M245.772 75.7836C244.293 77.2933 242.44 78.0463 240.209 78.0385C237.978 78.0308 236.237 77.2702 234.769 75.7527C233.297 74.2353 232.565 72.3935 232.573 70.2312C232.58 68.0689 233.32 66.2349 234.799 64.7252C236.275 63.2154 238.097 62.4625 240.255 62.4702C242.413 62.4779 244.335 63.2386 245.803 64.756C247.271 66.2735 248.007 68.1153 247.999 70.2775C247.992 72.4398 247.252 74.2739 245.772 75.7836Z" fill="#333333"/>
<path d="M110.611 65.9762C109.628 64.5166 108.746 62.9876 107.968 61.4122C105.263 63.0532 102.558 64.7367 99.6031 65.8951C97.3261 66.787 94.2746 67.3855 92.6449 65.0417C90.8841 62.5165 91.2077 59.1457 91.0344 56.2305C90.7261 50.9909 90.8726 45.759 90.9149 40.5155C90.9881 31.6116 91.0883 22.7077 91.0922 13.8038C91.0922 9.58347 91.0999 5.86901 91.096 1.09658C91.096 0.490371 90.6067 0 90.0018 0H80.5392C79.9343 0 79.445 0.490371 79.445 1.09658V63.2965C79.445 68.2427 79.4989 74.2584 84.4537 76.884C93.2536 81.5483 106.538 74.8955 114.225 70.5748C112.907 69.1346 111.697 67.5979 110.607 65.9762H110.611Z" fill="#333333"/>
<path d="M73.2226 66.1885C72.3904 64.729 71.643 63.2 70.9841 61.6246C68.6917 63.2656 66.4031 64.9491 63.8988 66.1074C61.9685 66.9994 59.3832 67.5978 58 65.2541C58 65.2541 58 65.2541 58 65.2502C57.8151 64.9375 57.7303 64.5745 57.7342 64.2077L57.8845 18.9198H46.7806L46.7921 26.9318C46.7921 25.8159 44.542 23.4027 43.7561 22.7733C42.1726 21.5068 40.4542 20.4373 38.6472 19.5724C35.0294 17.8464 31.0571 16.9506 27.0925 17.0085C19.4562 17.1282 12.3631 20.9547 7.443 27.094C2.49209 33.2719 -0.154815 41.4151 0.00700431 49.5043C0.188088 58.6129 4.03323 67.3044 10.7449 73.0383C15.7305 77.3049 22.0183 79.5868 28.4217 79.4247C35.642 79.2432 42.3382 75.6716 47.135 69.8991C47.5704 72.8645 48.603 75.5596 51.0611 77.0964C58.5163 81.7607 69.7743 75.1079 76.2857 70.7872C75.1683 69.347 74.1435 67.8102 73.2226 66.1885ZM42.4692 62.3814C38.8707 66.204 34.49 68.1114 29.3272 68.1114C24.1643 68.1114 19.7875 66.204 16.1851 62.3814C12.5865 58.5627 10.7873 53.9138 10.7873 48.4348C10.7873 42.9557 12.5865 38.3107 16.1851 34.4881C19.7875 30.6694 24.1682 28.7581 29.3272 28.7581C34.4861 28.7581 38.8707 30.6694 42.4692 34.4881C46.0678 38.3069 46.7767 42.9596 46.7767 48.4348C46.7767 53.9099 46.0716 58.5627 42.4692 62.3814Z" fill="#333333"/>
</g>
<defs>
<clipPath id="clip0_7_172">
<rect width="248" height="80" fill="white"/>
</clipPath>
</defs>
</svg>
