<svg width="1123" height="807" viewBox="0 0 1123 807" fill="none" xmlns="http://www.w3.org/2000/svg">
<g clip-path="url(#clip0_23_1007)">
<mask id="mask0_23_1007" style="mask-type:luminance" maskUnits="userSpaceOnUse" x="-135" y="-178" width="1620" height="1312">
<path d="M1484.81 43.6155L31.406 -177.704L-134.69 911.875L1318.71 1133.19L1484.81 43.6155Z" fill="white"/>
</mask>
<g mask="url(#mask0_23_1007)">
<path d="M422.734 208.509C419.921 206.862 426.456 202.384 429.601 201.571C432.595 200.793 440.525 204.788 443.794 203.732C449.215 201.988 449.737 194.853 452.945 191.335C458.49 185.255 469.496 185.654 476.675 183.336C478.111 182.872 481.581 177.158 483.711 180.052C485.84 182.946 484.943 187.498 489.726 188.226C489.953 188.261 515.342 183.664 517.389 183.003C521.957 181.521 526.576 172.179 535.874 171.302C548.177 170.141 557.52 179.925 570.323 178.725C574.979 178.287 579.281 175.211 583.962 174.995C590.895 174.672 597.877 177.361 604.758 176.71C616.899 175.569 629.714 167.809 641.755 172.183C646.516 173.909 649.63 179.682 654.157 181.329C667.808 186.282 682.317 188.564 695.871 193.488C705.986 197.162 715.576 204.559 726.184 208.991C736.123 213.146 754.414 214.814 761.573 224.541C765.651 230.083 764.153 243.718 767.121 250.064C773.175 263.034 789.785 270.586 797.292 280.788C800.853 285.627 795.273 291.745 798.57 296.224C805.283 305.347 819.359 321.992 820.454 333.67C820.995 339.458 808.392 349.064 805.038 353.823C800.073 360.862 813.484 366.345 809.539 371.928C804.151 379.556 791.813 389.798 792.826 400.593C793.213 404.717 797.685 412.061 794.813 416.138C793.702 417.71 789.462 416.557 787.993 418.003C784.135 421.784 785.627 429.139 782.776 433.176C778.146 439.729 772.74 446.324 769.38 454.362C764.832 465.239 765.057 495.961 760.33 499.436C753.608 504.379 755.433 516.894 750.591 520.454C745.979 523.845 739.629 520.628 734.932 523.15C724.257 528.87 727.793 534.823 722.895 540.188C715.224 548.586 702.915 545.783 694.583 549.667C684.763 554.254 674.107 567.38 662.087 572.3C651.042 576.831 632.608 570.671 623.563 577.321C616.203 582.733 617.041 593.051 614.148 596.21C611.34 599.296 602.682 599.022 599.367 602.669C596.561 605.74 591.538 611.348 586.39 611.58C580.087 611.869 561.603 614.324 556.646 611.406C554.487 610.134 552.131 607.104 549.272 607.38C534.302 608.787 525.238 626.424 508.369 628.006C490.584 629.682 469.408 625.601 452.211 629.616C446.324 630.984 441.468 636.168 435.193 636.46C429.59 636.725 418.532 631.717 410.74 634.914C394.104 641.73 370.322 671.409 354.812 644.543C351.206 638.289 349.758 631.304 346.161 625.081C343.128 619.828 334.226 617.921 332.88 612.171C330.578 602.312 344.606 597.364 343.437 590.552C342.823 586.96 338.232 588.018 337.097 584.506C333.853 574.446 329.126 564.494 323.573 554.14C323.008 553.081 320.372 552.564 321.059 551.58C330.432 538.302 344.202 554.857 339.361 526.786C338.234 520.27 326.294 524.288 323.195 518.517C321.067 514.564 329.174 511.967 327.763 507.6C326.421 503.447 315.995 494.674 318.186 489.448C319.146 487.155 322.027 488.262 320.362 484.699C318.248 480.181 310.718 479.18 309.596 474.349C308.719 470.572 313.702 445.506 314.029 445.266C317.431 442.765 321.333 444.796 320.788 439.037C319.885 429.435 315.295 419.721 314.36 409.751C313.782 403.639 316.329 397.219 315.753 391.092C314.503 377.852 302.287 376.92 312.596 359.401C315.714 354.099 322.541 351.988 326.113 346.943C329.019 342.842 326.963 338.131 331.608 334.715C343.024 326.321 351.967 332.343 359.704 326.655C364.545 323.095 358.891 308.647 367.098 306.732C377.579 304.278 396.652 348.075 403.932 341.374C407.598 337.998 407.465 320.674 410.123 319.816C423.29 315.565 429.102 304.59 442.896 300.129C444.224 299.707 445.489 299.696 445.457 297.616C445.223 280.291 429.744 284.278 426.269 275.823C424.478 271.471 430.02 263.794 427.229 260.001C421.154 251.745 405.89 248.985 399.093 239.748C386.858 223.122 410.382 223.612 413.63 215.833C415.022 212.517 423.053 208.703 422.734 208.509Z" stroke="black" stroke-width="4" stroke-linecap="round" stroke-linejoin="round"/>
<path d="M892.067 292.692C889.673 304.492 890.133 319.195 885.681 329.825C883.33 335.433 879.132 342.298 879.213 348.436C879.459 366.445 877.027 384.307 869.576 402.13C861.171 422.203 839.386 434.505 828.39 453.197C825.687 457.779 828.765 465.883 826.396 471.038C819.76 485.517 818.542 503.317 811.345 517.375C806.276 527.287 789.586 535.604 781.257 543.277C774.601 549.406 765.583 551.023 758.791 557.276C740.881 573.782 725.525 584.683 700.885 594.184C691.04 597.983 648.493 603.204 643.384 609.379C642.351 610.63 632.466 639.274 632.841 640.435C633.766 643.319 638.002 645.256 638.146 648.501C638.341 652.842 633.349 662.156 639.315 664.646C642.62 666.021 646.335 662.899 649.467 664.741C653.358 667.032 653.169 671.793 658.32 673.347C669.788 676.806 680.014 671.366 691.227 671.826C705.285 672.398 718.737 674.752 732.927 674.547C746.273 674.358 758.632 681.407 772.174 679.071C781.047 677.548 802.258 676.54 807.906 668.545C818.387 653.709 821.089 636.178 837.15 624.369C844.362 619.066 852.064 617.51 859.892 613.316C872.277 606.667 888.571 589.232 893.022 576.99C897.498 564.68 913.249 554.812 918.731 541.712C921.769 534.452 917.708 528.608 917.393 521.911C916.844 509.982 925.129 496.409 923.941 483.715C923.491 478.856 918.064 480.164 917 476.852C916.174 474.272 919.151 471.794 918.9 469.157C917.789 457.389 916.964 445.462 916.392 433.211C916.014 424.923 908.316 418.074 907.572 410.093C906.891 402.935 913.172 396.982 912.837 389.847C912.295 378.253 905.322 364.548 904.76 352.327C904.34 343.364 913.227 330.506 910.721 322.751C908.183 314.917 896.575 309.898 895.791 301.606C895.278 296.114 902.924 279.873 895.92 276.948C890.964 274.873 892.757 289.314 892.067 292.692Z" stroke="black" stroke-width="4" stroke-linecap="round" stroke-linejoin="round"/>
<path d="M524.88 648.182C514.26 649.831 499.781 654.493 490.472 658.112C487.753 659.179 487.861 662.854 483.962 662.899C469.684 663.105 455.973 664.443 443.163 669.693C435.68 672.763 426.271 668.848 418.595 669.566C412.479 670.145 408.435 674.857 403.059 676.593C394.213 679.456 383.071 674.333 373.722 679.355C372.82 679.842 355.37 695.331 355.382 695.347C357.779 700.488 359.592 704.408 357.257 711.528C356.277 714.529 353.455 723.042 351.569 725.121C350.488 726.306 345.066 727.862 345.769 730.015C346.788 733.146 352.594 739.169 355.776 740.206C363.3 742.673 377.939 740.387 385.112 737.444C388.581 736.027 391.888 730.535 395.587 730.372C413.841 729.523 432.32 728.533 449.491 727.737C461.923 727.162 481.637 709.971 494.774 705.729C507.635 701.576 513.376 702.595 526.003 695.315C532.85 691.363 574.725 688.943 577.448 685.09C579.226 682.573 575.98 676.809 576.948 674.17C578.926 668.722 590.032 667.321 592.96 659.26C594.137 656.013 589.599 636.915 584.677 637.762C579.741 638.608 568.432 641.153 563.056 637.359C562.703 637.102 561.075 635.678 560.339 636.219C558.54 637.542 559.329 641.988 557.039 643.672C548.894 649.661 532.246 647.024 524.911 648.172L524.88 648.182Z" stroke="black" stroke-width="4" stroke-linecap="round" stroke-linejoin="round"/>
</g>
</g>
<defs>
<clipPath id="clip0_23_1007">
<rect width="1230" height="922" fill="white" transform="translate(0 -5)"/>
</clipPath>
</defs>
</svg>
